<?xml version="1.0" encoding="UTF-8" standalone="no"?>
<svg
   xmlns:dc="http://purl.org/dc/elements/1.1/"
   xmlns:cc="http://creativecommons.org/ns#"
   xmlns:rdf="http://www.w3.org/1999/02/22-rdf-syntax-ns#"
   xmlns:svg="http://www.w3.org/2000/svg"
   xmlns="http://www.w3.org/2000/svg"
   xmlns:sodipodi="http://sodipodi.sourceforge.net/DTD/sodipodi-0.dtd"
   xmlns:inkscape="http://www.inkscape.org/namespaces/inkscape"
   width="200"
   height="200"
   version="1.1"
   id="svg4"
   sodipodi:docname="moodle.svg"
   inkscape:version="0.92.1 r15371"
   style="fill:#000000">
  <metadata
     id="metadata10">
    <rdf:RDF>
      <cc:Work
         rdf:about="">
        <dc:format>image/svg+xml</dc:format>
        <dc:type
           rdf:resource="http://purl.org/dc/dcmitype/StillImage" />
        <dc:title></dc:title>
      </cc:Work>
    </rdf:RDF>
  </metadata>
  <defs
     id="defs8" />
  <sodipodi:namedview
     pagecolor="#ffffff"
     bordercolor="#666666"
     borderopacity="1"
     objecttolerance="10"
     gridtolerance="10"
     guidetolerance="10"
     inkscape:pageopacity="0"
     inkscape:pageshadow="2"
     inkscape:window-width="1024"
     inkscape:window-height="541"
     id="namedview6"
     showgrid="true"
     inkscape:zoom="1.6435185"
     inkscape:cx="62.91831"
     inkscape:cy="111.59731"
     inkscape:window-x="0"
     inkscape:window-y="31"
     inkscape:window-maximized="1"
     inkscape:current-layer="svg4">
    <inkscape:grid
       type="xygrid"
       id="grid1454" />
  </sodipodi:namedview>
  <g
     id="g1433"
     transform="matrix(4.3175955,0,0,4.3175954,-5.7810901,-1.4634935)">
    <path
       sodipodi:nodetypes="scsccsccsssccssssssccsssccsccccsscsccscsccsccsc"
       id="path2-6"
       d="m 34,16 c -2.304687,0 -4.402344,0.882813 -6,2.320313 -0.289062,-0.261719 -0.824219,-1.328125 -0.980469,-1.328125 -0.0078,0 -0.01563,0.0039 -0.01953,0.0078 -1.625,1.460938 -3.175781,3.582031 -4,5 1.210938,0.550781 2,2.089844 2,3.5 V 37 h 6 V 25.5 c 0,-1.925781 1.574219,-3.5 3.5,-3.5 1.925781,0 3.5,1.574219 3.5,3.5 V 37 h 6 V 25 c 0,-4.949219 -4.050781,-9 -9,-9 z m 0,2 h 1 c 3.859375,0 7,3.140625 7,7 V 35 H 40 V 25.5 C 40,22.46875 37.53125,20 34.5,20 31.46875,20 29,22.46875 29,25.5 V 35 h -2 v -9.5 c 0,-1.4375 -0.515625,-2.839844 -1.367187,-3.890625 0.375,-0.527344 0.800781,-1.078125 1.246093,-1.605469 L 28,21.011719 29.339844,19.808594 C 30.632813,18.640625 32.289063,18 34,18 Z m -21.000001,4 c -0.160156,0 -0.3125,0.0078 -0.46875,0.01172 -0.335937,0.937499 -0.53125,1.937499 -0.53125,2.98828 V 37 H 18 V 25.5 c 0,-1.007812 0.433594,-1.917969 1.125,-2.550781 C 17.519531,22.363281 15.375,22 12.999999,22 Z m 1.07422,2.027344 c 0.71875,0.03516 1.417969,0.109375 2.074219,0.21875 C 16.050778,24.652344 16,25.074219 16,25.5 V 35 H 14 V 25 c 0,-0.320312 0.02344,-0.648437 0.07422,-0.972656 z"
       inkscape:connector-curvature="0"
       style="fill:#f98012;fill-opacity:1;stroke-width:1" />
    <path
       sodipodi:nodetypes="cccccssscccscscccccccccc"
       inkscape:connector-curvature="0"
       id="path2"
       d="M 31,10 17,11 5,18 h 3 v 9.203125 C 7.402344,27.699219 7,29.019531 7,30.5 7,32.433594 7.671875,34 8.5,34 9.328125,34 10,32.433594 10,30.5 10,29.019531 9.597656,27.699219 9,27.203125 V 18 h 3.160156 C 12.0625,18.484375 12,18.984375 12,19.5 c 0,0.519531 0.05469,1.027344 0.15625,1.515625 C 12.433594,21.007813 12.714844,21 13,21 c 3.605469,0 6.5625,0.808594 8,2 0.585938,-1.773437 2.355469,-4.03125 4.660156,-6.105469 0.210938,-0.1875 0.425782,-0.371093 0.636719,-0.550781 C 25.960938,15.621094 25.5,14.96875 24.957031,14.390625 Z M 24.171875,12.492188 19.347656,16 h -6.949218 l 5.207031,-3.035156 z" />
  </g>
</svg>
